<svg width="88" height="88" viewBox="0 0 88 88" fill="none" xmlns="http://www.w3.org/2000/svg">
<circle cx="44" cy="44" r="44" fill="#FF5800"/>
<path opacity="0.16" d="M25.9998 57.5C25.9998 55.1131 26.948 52.8239 28.6358 51.136C30.3236 49.4482 32.6128 48.5 34.9998 48.5H52.9998C55.3867 48.5 57.6759 49.4482 59.3637 51.136C61.0515 52.8239 61.9998 55.1131 61.9998 57.5C61.9998 58.6935 61.5257 59.8381 60.6817 60.682C59.8378 61.5259 58.6932 62 57.4998 62H30.4998C29.3063 62 28.1617 61.5259 27.3178 60.682C26.4739 59.8381 25.9998 58.6935 25.9998 57.5Z" fill="white"/>
<path d="M25.9998 57.5C25.9998 55.1131 26.948 52.8239 28.6358 51.136C30.3236 49.4482 32.6128 48.5 34.9998 48.5H52.9998C55.3867 48.5 57.6759 49.4482 59.3637 51.136C61.0515 52.8239 61.9998 55.1131 61.9998 57.5C61.9998 58.6935 61.5256 59.8381 60.6817 60.682C59.8378 61.5259 58.6932 62 57.4998 62H30.4998C29.3063 62 28.1617 61.5259 27.3178 60.682C26.4739 59.8381 25.9998 58.6935 25.9998 57.5Z" stroke="white" stroke-width="4.5" stroke-linejoin="round"/>
<path d="M43.9999 39.5C47.7278 39.5 50.7499 36.4779 50.7499 32.75C50.7499 29.0221 47.7278 26 43.9999 26C40.272 26 37.2499 29.0221 37.2499 32.75C37.2499 36.4779 40.272 39.5 43.9999 39.5Z" stroke="white" stroke-width="4.5"/>
</svg>
